<mxfile host="app.diagrams.net" agent="Mozilla/5.0 (Windows NT 10.0; Win64; x64) AppleWebKit/537.36 (KHTML, like Gecko) Chrome/132.0.0.0 Safari/537.36" version="26.0.12">
  <diagram id="C5RBs43oDa-KdzZeNtuy" name="Page-1">
    <mxGraphModel dx="2670" dy="796" grid="1" gridSize="10" guides="1" tooltips="1" connect="1" arrows="1" fold="1" page="1" pageScale="1" pageWidth="827" pageHeight="1169" math="0" shadow="0">
      <root>
        <mxCell id="WIyWlLk6GJQsqaUBKTNV-0" />
        <mxCell id="WIyWlLk6GJQsqaUBKTNV-1" parent="WIyWlLk6GJQsqaUBKTNV-0" />
        <mxCell id="moygf6hr6jvUK0BLB1yh-8" value="&lt;font style=&quot;vertical-align: inherit;&quot;&gt;&lt;font style=&quot;vertical-align: inherit;&quot;&gt;Cadastro&lt;/font&gt;&lt;/font&gt;" style="shape=folder;fontStyle=1;tabWidth=110;tabHeight=30;tabPosition=left;html=1;boundedLbl=1;labelInHeader=1;container=1;collapsible=0;whiteSpace=wrap;" vertex="1" parent="WIyWlLk6GJQsqaUBKTNV-1">
          <mxGeometry x="-60" y="20" width="420" height="490" as="geometry" />
        </mxCell>
        <mxCell id="moygf6hr6jvUK0BLB1yh-9" value="" style="html=1;strokeColor=none;resizeWidth=1;resizeHeight=1;fillColor=none;part=1;connectable=0;allowArrows=0;deletable=0;whiteSpace=wrap;" vertex="1" parent="moygf6hr6jvUK0BLB1yh-8">
          <mxGeometry width="412.8813559322034" height="343" relative="1" as="geometry">
            <mxPoint y="30" as="offset" />
          </mxGeometry>
        </mxCell>
        <mxCell id="moygf6hr6jvUK0BLB1yh-0" value="&lt;font style=&quot;vertical-align: inherit;&quot;&gt;&lt;font style=&quot;vertical-align: inherit;&quot;&gt;CadastroPaciente&lt;/font&gt;&lt;/font&gt;" style="swimlane;fontStyle=1;align=center;verticalAlign=top;childLayout=stackLayout;horizontal=1;startSize=26;horizontalStack=0;resizeParent=1;resizeParentMax=0;resizeLast=0;collapsible=1;marginBottom=0;whiteSpace=wrap;html=1;" vertex="1" parent="moygf6hr6jvUK0BLB1yh-8">
          <mxGeometry x="30" y="70" width="340" height="155.27659574468086" as="geometry" />
        </mxCell>
        <mxCell id="moygf6hr6jvUK0BLB1yh-1" value="&lt;font style=&quot;vertical-align: inherit;&quot;&gt;&lt;font style=&quot;vertical-align: inherit;&quot;&gt;- numPacientes: int&lt;/font&gt;&lt;/font&gt;" style="text;strokeColor=none;fillColor=none;align=left;verticalAlign=top;spacingLeft=4;spacingRight=4;overflow=hidden;rotatable=0;points=[[0,0.5],[1,0.5]];portConstraint=eastwest;whiteSpace=wrap;html=1;" vertex="1" parent="moygf6hr6jvUK0BLB1yh-0">
          <mxGeometry y="26" width="340" height="27.106382978723403" as="geometry" />
        </mxCell>
        <mxCell id="moygf6hr6jvUK0BLB1yh-2" value="" style="line;strokeWidth=1;fillColor=none;align=left;verticalAlign=middle;spacingTop=-1;spacingLeft=3;spacingRight=3;rotatable=0;labelPosition=right;points=[];portConstraint=eastwest;strokeColor=inherit;" vertex="1" parent="moygf6hr6jvUK0BLB1yh-0">
          <mxGeometry y="53.1063829787234" width="340" height="8.340425531914894" as="geometry" />
        </mxCell>
        <mxCell id="moygf6hr6jvUK0BLB1yh-3" value="&lt;font style=&quot;vertical-align: inherit;&quot;&gt;&lt;font style=&quot;vertical-align: inherit;&quot;&gt;&lt;font style=&quot;vertical-align: inherit;&quot;&gt;&lt;font style=&quot;vertical-align: inherit;&quot;&gt;&lt;font style=&quot;vertical-align: inherit;&quot;&gt;&lt;font style=&quot;vertical-align: inherit;&quot;&gt;+ cadastrarPaciente(p: Paciente): int&lt;/font&gt;&lt;/font&gt;&lt;/font&gt;&lt;/font&gt;&lt;/font&gt;&lt;/font&gt;&lt;div&gt;&lt;font style=&quot;vertical-align: inherit;&quot;&gt;&lt;font style=&quot;vertical-align: inherit;&quot;&gt;&lt;font style=&quot;vertical-align: inherit;&quot;&gt;&lt;font style=&quot;vertical-align: inherit;&quot;&gt;&lt;font style=&quot;vertical-align: inherit;&quot;&gt;&lt;font style=&quot;vertical-align: inherit;&quot;&gt;+ pesquisarPaciente(cpf: String): Paciente&lt;/font&gt;&lt;/font&gt;&lt;/font&gt;&lt;/font&gt;&lt;/font&gt;&lt;/font&gt;&lt;/div&gt;&lt;div&gt;&lt;font style=&quot;vertical-align: inherit;&quot;&gt;&lt;font style=&quot;vertical-align: inherit;&quot;&gt;&lt;font style=&quot;vertical-align: inherit;&quot;&gt;&lt;font style=&quot;vertical-align: inherit;&quot;&gt;&lt;font style=&quot;vertical-align: inherit;&quot;&gt;&lt;font style=&quot;vertical-align: inherit;&quot;&gt;&lt;font style=&quot;vertical-align: inherit;&quot;&gt;&lt;font style=&quot;vertical-align: inherit;&quot;&gt;+ removedorPaciente(p: Paciente): boolean&lt;/font&gt;&lt;/font&gt;&lt;/font&gt;&lt;/font&gt;&lt;/font&gt;&lt;/font&gt;&lt;/font&gt;&lt;/font&gt;&lt;/div&gt;&lt;div&gt;&lt;font style=&quot;vertical-align: inherit;&quot;&gt;&lt;font style=&quot;vertical-align: inherit;&quot;&gt;&lt;font style=&quot;vertical-align: inherit;&quot;&gt;&lt;font style=&quot;vertical-align: inherit;&quot;&gt;&lt;font style=&quot;vertical-align: inherit;&quot;&gt;&lt;font style=&quot;vertical-align: inherit;&quot;&gt;&lt;font style=&quot;vertical-align: inherit;&quot;&gt;&lt;font style=&quot;vertical-align: inherit;&quot;&gt;&lt;font style=&quot;vertical-align: inherit;&quot;&gt;&lt;font style=&quot;vertical-align: inherit;&quot;&gt;+ atualizarPaciente(cpf: String, p: Paciente): boleano&lt;/font&gt;&lt;/font&gt;&lt;/font&gt;&lt;/font&gt;&lt;/font&gt;&lt;/font&gt;&lt;/font&gt;&lt;/font&gt;&lt;/font&gt;&lt;/font&gt;&lt;/div&gt;&lt;div&gt;&lt;font style=&quot;vertical-align: inherit;&quot;&gt;&lt;font style=&quot;vertical-align: inherit;&quot;&gt;&lt;font style=&quot;vertical-align: inherit;&quot;&gt;&lt;font style=&quot;vertical-align: inherit;&quot;&gt;&lt;font style=&quot;vertical-align: inherit;&quot;&gt;&lt;font style=&quot;vertical-align: inherit;&quot;&gt;&lt;font style=&quot;vertical-align: inherit;&quot;&gt;&lt;font style=&quot;vertical-align: inherit;&quot;&gt;&lt;br&gt;&lt;/font&gt;&lt;/font&gt;&lt;/font&gt;&lt;/font&gt;&lt;/font&gt;&lt;/font&gt;&lt;/font&gt;&lt;/font&gt;&lt;/div&gt;" style="text;strokeColor=none;fillColor=none;align=left;verticalAlign=top;spacingLeft=4;spacingRight=4;overflow=hidden;rotatable=0;points=[[0,0.5],[1,0.5]];portConstraint=eastwest;whiteSpace=wrap;html=1;" vertex="1" parent="moygf6hr6jvUK0BLB1yh-0">
          <mxGeometry y="61.4468085106383" width="340" height="93.82978723404256" as="geometry" />
        </mxCell>
        <mxCell id="moygf6hr6jvUK0BLB1yh-10" value="&lt;font style=&quot;vertical-align: inherit;&quot;&gt;&lt;font style=&quot;vertical-align: inherit;&quot;&gt;&lt;font style=&quot;vertical-align: inherit;&quot;&gt;&lt;font style=&quot;vertical-align: inherit;&quot;&gt;CadastroMedico&lt;/font&gt;&lt;/font&gt;&lt;/font&gt;&lt;/font&gt;" style="swimlane;fontStyle=1;align=center;verticalAlign=top;childLayout=stackLayout;horizontal=1;startSize=26;horizontalStack=0;resizeParent=1;resizeParentMax=0;resizeLast=0;collapsible=1;marginBottom=0;whiteSpace=wrap;html=1;" vertex="1" parent="moygf6hr6jvUK0BLB1yh-8">
          <mxGeometry x="30" y="280" width="340" height="142.84615384615384" as="geometry" />
        </mxCell>
        <mxCell id="moygf6hr6jvUK0BLB1yh-11" value="&lt;font style=&quot;vertical-align: inherit;&quot;&gt;&lt;font style=&quot;vertical-align: inherit;&quot;&gt;&lt;font style=&quot;vertical-align: inherit;&quot;&gt;&lt;font style=&quot;vertical-align: inherit;&quot;&gt;- numMedicos: int&lt;/font&gt;&lt;/font&gt;&lt;/font&gt;&lt;/font&gt;" style="text;strokeColor=none;fillColor=none;align=left;verticalAlign=top;spacingLeft=4;spacingRight=4;overflow=hidden;rotatable=0;points=[[0,0.5],[1,0.5]];portConstraint=eastwest;whiteSpace=wrap;html=1;" vertex="1" parent="moygf6hr6jvUK0BLB1yh-10">
          <mxGeometry y="26" width="340" height="24.5" as="geometry" />
        </mxCell>
        <mxCell id="moygf6hr6jvUK0BLB1yh-12" value="" style="line;strokeWidth=1;fillColor=none;align=left;verticalAlign=middle;spacingTop=-1;spacingLeft=3;spacingRight=3;rotatable=0;labelPosition=right;points=[];portConstraint=eastwest;strokeColor=inherit;" vertex="1" parent="moygf6hr6jvUK0BLB1yh-10">
          <mxGeometry y="50.5" width="340" height="7.538461538461538" as="geometry" />
        </mxCell>
        <mxCell id="moygf6hr6jvUK0BLB1yh-13" value="&lt;font style=&quot;vertical-align: inherit;&quot;&gt;&lt;font style=&quot;vertical-align: inherit;&quot;&gt;&lt;font style=&quot;vertical-align: inherit;&quot;&gt;&lt;font style=&quot;vertical-align: inherit;&quot;&gt;&lt;font style=&quot;vertical-align: inherit;&quot;&gt;&lt;font style=&quot;vertical-align: inherit;&quot;&gt;+ cadastrarMedico(m: Medico): int&lt;/font&gt;&lt;/font&gt;&lt;/font&gt;&lt;/font&gt;&lt;/font&gt;&lt;/font&gt;&lt;div&gt;&lt;font style=&quot;vertical-align: inherit;&quot;&gt;&lt;font style=&quot;vertical-align: inherit;&quot;&gt;&lt;font style=&quot;vertical-align: inherit;&quot;&gt;&lt;font style=&quot;vertical-align: inherit;&quot;&gt;&lt;font style=&quot;vertical-align: inherit;&quot;&gt;&lt;font style=&quot;vertical-align: inherit;&quot;&gt;+ pesquisarMedico(crm: String): Medico&lt;/font&gt;&lt;/font&gt;&lt;/font&gt;&lt;/font&gt;&lt;/font&gt;&lt;/font&gt;&lt;/div&gt;&lt;div&gt;&lt;font style=&quot;vertical-align: inherit;&quot;&gt;&lt;font style=&quot;vertical-align: inherit;&quot;&gt;&lt;font style=&quot;vertical-align: inherit;&quot;&gt;&lt;font style=&quot;vertical-align: inherit;&quot;&gt;&lt;font style=&quot;vertical-align: inherit;&quot;&gt;&lt;font style=&quot;vertical-align: inherit;&quot;&gt;&lt;font style=&quot;vertical-align: inherit;&quot;&gt;&lt;font style=&quot;vertical-align: inherit;&quot;&gt;+ removedorMedico(m: Medico): boolean&lt;/font&gt;&lt;/font&gt;&lt;/font&gt;&lt;/font&gt;&lt;/font&gt;&lt;/font&gt;&lt;/font&gt;&lt;/font&gt;&lt;/div&gt;&lt;div&gt;&lt;font style=&quot;vertical-align: inherit;&quot;&gt;&lt;font style=&quot;vertical-align: inherit;&quot;&gt;&lt;font style=&quot;vertical-align: inherit;&quot;&gt;&lt;font style=&quot;vertical-align: inherit;&quot;&gt;&lt;font style=&quot;vertical-align: inherit;&quot;&gt;&lt;font style=&quot;vertical-align: inherit;&quot;&gt;&lt;font style=&quot;vertical-align: inherit;&quot;&gt;&lt;font style=&quot;vertical-align: inherit;&quot;&gt;&lt;font style=&quot;vertical-align: inherit;&quot;&gt;&lt;font style=&quot;vertical-align: inherit;&quot;&gt;+ atualizarMedico(crm: String, m: Medico): boleano&lt;/font&gt;&lt;/font&gt;&lt;/font&gt;&lt;/font&gt;&lt;/font&gt;&lt;/font&gt;&lt;/font&gt;&lt;/font&gt;&lt;/font&gt;&lt;/font&gt;&lt;/div&gt;&lt;div&gt;&lt;font style=&quot;vertical-align: inherit;&quot;&gt;&lt;font style=&quot;vertical-align: inherit;&quot;&gt;&lt;font style=&quot;vertical-align: inherit;&quot;&gt;&lt;font style=&quot;vertical-align: inherit;&quot;&gt;&lt;font style=&quot;vertical-align: inherit;&quot;&gt;&lt;font style=&quot;vertical-align: inherit;&quot;&gt;&lt;font style=&quot;vertical-align: inherit;&quot;&gt;&lt;font style=&quot;vertical-align: inherit;&quot;&gt;&lt;br&gt;&lt;/font&gt;&lt;/font&gt;&lt;/font&gt;&lt;/font&gt;&lt;/font&gt;&lt;/font&gt;&lt;/font&gt;&lt;/font&gt;&lt;/div&gt;" style="text;strokeColor=none;fillColor=none;align=left;verticalAlign=top;spacingLeft=4;spacingRight=4;overflow=hidden;rotatable=0;points=[[0,0.5],[1,0.5]];portConstraint=eastwest;whiteSpace=wrap;html=1;" vertex="1" parent="moygf6hr6jvUK0BLB1yh-10">
          <mxGeometry y="58.03846153846154" width="340" height="84.8076923076923" as="geometry" />
        </mxCell>
        <mxCell id="moygf6hr6jvUK0BLB1yh-14" value="Entidades" style="shape=folder;fontStyle=1;tabWidth=110;tabHeight=30;tabPosition=left;html=1;boundedLbl=1;labelInHeader=1;container=1;collapsible=0;whiteSpace=wrap;" vertex="1" parent="WIyWlLk6GJQsqaUBKTNV-1">
          <mxGeometry x="440" y="10" width="1040" height="970" as="geometry" />
        </mxCell>
        <mxCell id="moygf6hr6jvUK0BLB1yh-15" value="&lt;span style=&quot;color: rgba(0, 0, 0, 0); font-family: monospace; font-size: 0px; text-align: start; text-wrap-mode: nowrap;&quot;&gt;&lt;font style=&quot;vertical-align: inherit;&quot;&gt;&lt;font style=&quot;vertical-align: inherit;&quot;&gt;%3CmxGraphModel%3E%3Croot%3E%3CmxCell%20id%3D%220%22%2F%3E%3CmxCell%20id%3D%221%22%20parent%3D%220%22%2F%3E%3CmxCell%20id%3D %222%22%20valor%3D%22%26lt%3Bfont%20style%3D%26quot%3Bvertical-align%3A%20inherit%3B%26quot%3B%26gt%3B%26lt%3Bfont%20style%3D %26quot%3Bvertical-align%3A%20inherit%3B%26quot%3B%26gt%3BCadastroPaciente%26lt%3B%2Ffont%26gt%3B%26lt%3B%2Ffont%26gt%3B%22%20style%3D%22swimlane%3BfontStyle%3D1%3Balign%3Dcenter%3BverticalAlign%3Dtop%3BchildLayout%3DstackLayout%3Bhorizontal%3D1%3Bst artSize%3D26%3BhorizontalStack%3D0%3BresizeParent%3D1%3BresizeParentMax%3D0%3BresizeLast%3D0%3Bcollapsible%3D1%3BmarginBottom %3D0%3BwhiteSpace%3Dwrap%3Bhtml%3D1%3B%22%20vértice%3D%221%22%20parent%3D%221%22%3E%3CmxGeometria%20x%3D%22-30%22%20y%3D%2290%2 2%20largura%3D%22340%22%20altura%3D%22155.27659574468086%22%20como%3D%22geometria%22%2F%3E%3C%2FmxCell%3E%3CmxCell%20id%3D%223%22%20valor%3D%22%26lt%3Bfonte%20estilo%3D%26quot%3Balinhamento-vertical%3A%20herdar%3B%26quot%3B%26gt%3B%26lt%3Bfonte%20estilo%3D%26quot% 3Bvertical-align%3A%20inherit%3B%26quot%3B%26gt%3B-%20numPacientes%3A%20int%26lt%3B%2Ffont%26gt%3B%26lt%3B%2Ffont%26gt%3B%22%20style%3D%22text%3BstrokeColor%3Dnone%3BfillColor%3Dnone%3BBalign%3Dleft%3BverticalAlign%3Dtop%3BspacingLeft%3D4%3BspacingRi ght%3D4%3Boverflow%3Dhidden%3Brotatable%3D0%3Bpontos%3D%5B%5B0%2C0,5%5D%2C%5B1%2C0,5%5D%5D%3BportConstraint%3Deastwest%3Bwhit eSpace%3Dwrap%3Bhtml%3D1%3B%22%20vértice%3D%221%22%20pai%3D%222%22%3E%3CmxGeometria%20y%3D%2226%22%20largura%3D%22340%22%20hei ght%3D%2227.106382978723403%22%20como%3D%22geometria%22%2F%3E%3C%2FmxCell%3E%3CmxCell%20id%3D%224%22%20valor%3D%22%22%20estilo%3D%22linha%3BtraçoLargura%3D1%3BcorPreenchimento%3Dnenhum%3Balign%3Desquerda%3BalinhamentoVertical%3Dmeio%3BespaçamentoTopo%3D-1%3BespaçamentoEsquerda%3D3%3Bsp acingRight% 3D3% 3Brotatable% 3D0% 3BlabelPosition% 3Dright% 3Bpoints% 3D% 5B% 5D% 3BportConstraint% 3Deastwest% 3BstrokeColor% 3Dinherit% 3B%22%20vértice%3D%221%22%20pai%3D%222%22%3E%3CmxGeometria%20y%3D%2253.1063829787234%22%20largura%3D%22340%22%20altura%3D%228.340425531914894%22%20como%3D%22geometria%22%2F%3E%3C%2FmxCell%3E%3CmxCell%20id%3D%225%22%20valor%3D%22%26lt%3Bfonte%20estilo%3D%26quot%3Balinhamento-vertical%3A%20herdar%3B%26quot%3B%26gt%3B%26lt%3 Bfont%20style%3D%26quot%3Bvertical-align%3A%20inherit%3B%26quot%3B%26gt%3B%26lt%3Bfont%20style%3D%26quot%3Bvertical-align%3A%20inherit%3B%26quot%3B%26gt%3B%26lt%3Bfont%20style%3D%26quot%3Bvertical-align%3A%20inherit%3B%26quot%3B%26gt%3B%26lt%3Bfont%20style%3D%26quot%3Bvertical-align%3A%20inherit%3B%26quot%3B%26gt%3B%26lt%3Bfont%20style%3D%26quot%3Bvertical-align%3A%20inher it%3B%26quot%3B%26gt%3B%2B%20cadastrarPaciente(p%3A%20Paciente)%3A%20int%26lt%3B%2Ffont%26gt%3B%26lt%3B%2Ffont%26gt%3B%26lt%3B%2Ffont%26gt%3B%26lt%3B%2Ffont%26gt%3B%26lt%3B%2Ffont%26gt%3B% 26lt%3B%2Ffonte%26gt%3B%26lt%3Bdiv%26gt%3B%26lt%3Bfonte%20estilo%3D%26quot%3Balinhamentovertical%3A%20herdar%3B%26quot%3B%26gt%3B%26lt%3Bfonte%20estilo%3D%26quot%3Balinhamentovertical%3A%20herdar%3B%2 6quot%3B%26gt%3B%26lt%3Bfonte%20estilo%3D%26quot%3Balinhamento-vertical%3A%20herdar%3B%26quot%3B%26gt%3B%26lt%3Bfonte%20estilo%3D%26quot%3Balinhamento-vertical%3A%20herdar%3B%26quot%3B%26gt%3B%26lt%3Bfo nt%20style%3D%26quot%3Bvertical-align%3A%20inherit%3B%26quot%3B%26gt%3B%26lt%3Bfont%20style%3D%26quot%3Bvertical-align%3A%20inherit%3B%26quot%3B%26gt%3B%2BpesquisarPaciente(cpf%3A%20Strin g)%3A%20Paciente%26lt%3B%2Ffont%26gt%3B%26lt%3B%2Ffont%26gt%3B%26lt%3B%2Ffont%26gt%3B%26lt%3B%2Ffont%26gt%3B%26lt%3B%2Ffont%26gt%3B%26lt%3B%2Ffont%26gt%3B%26lt%3B%2Ffont%26gt%3B%26lt%3B%2Fdiv%26gt%3B%26lt%3Bdiv% 26gt%3B%26lt%3Bfont%20style%3D%26quot%3Bvertical-align%3A%20inherit%3B%26quot%3B%26gt%3B%26lt%3Bfont%20style%3D%26quot%3Bvertical-align%3A%20inherit%3B%26quot%3B%26gt%3B%26lt%3Bfont%20sty le%3D%26quot%3Bvertical-align%3A%20herdar%3B%26quot%3B%26gt%3B%26lt%3Bfont%20style%3D%26quot%3Bvertical-align%3A%20herdar%3B%26quot%3B%26gt%3B%26lt%3Bfont%20style%3D%26quot%3Bvertical-align ign%3A%20herdar%3B%26quot%3B%26gt%3B%26lt%3Bestilo%20da%3D%26quot%3Balinhamento-vertical%3A%20herdar%3B%26quot%3B%26gt%3B%26lt%3Bestilo%20da%3D%26quot%3Balinhamento-vertical%3A%20herdar%3B%26quo t%3B%26gt%3B%26lt%3Bfont%20style%3D%26quot%3Bvertical-align%3A%20inherit%3B%26quot%3B%26gt%3B%2B%20removedorPaciente(p%3A%20Paciente)%3A%20boolean%26lt%3B%2Ffont%26gt%3B%26lt%3B%2Ffont%26g t%3B%26lt%3B%2Ffonte%26gt%3B%26lt%3B%2Ffonte%26gt%3B%2Ffonte%26gt%3B%26lt%3B%2Ffonte%26gt%3B%2Ffonte%26gt%3B%26lt%3B%2Ffonte%26gt%3B%2Ffonte%26gt%3B%26lt%3B%2Ffonte%26gt%3B%2Fdiv%26gt%3B%26lt%3Bdiv%26gt%3B%26l t%3Bfont%20style%3D%26quot%3Bvertical-align%3A%20inherit%3B%26quot%3B%26gt%3B%26lt%3Bfont%20style%3D%26quot%3Bvertical-align%3A%20inherit%3B%26quot%3B%26gt%3B%26lt%3Bfont%20style%3D%26quot %3Bvertical-align%3A%20herdar%3B%26quot%3B%26gt%3B%26lt%3Bfonte%20estilo%3D%26quot%3Bvertical-align%3A%20herdar%3B%26quot%3B%26gt%3B%26lt%3Bfonte%20estilo%3D%26quot%3Bvertical-align%3A%20em herdar%3B%26quot%3B%26gt%3B%26lt%3Bestilo%3D%26quot%3Balinhamento-vertical%3A%20herdar%3B%26quot%3B%26gt%3B%26lt%3Bestilo%3D%26quot%3Balinhamento-vertical%3A%20herdar%3B%26quot%3B%26gt%3B%26lt%3Bfont%20style%3D%26quot%3Bvertical-align%3A%20inherit%3B%26quot%3B%26gt%3B%26lt%3Bfont%20style%3D%26quot%3Bvertical-align%3A%20inherit%3B%26quot%3B%26gt%3B%26lt%3Bfont%20style%3D%26quot%3Bvertical-align%3A%20inherit%3B%26quot%3B%26gt%3B% 2B%20atualizarPaciente(cpf%3A%20String%2C%20p%3A%20Paciente)%3A%20boleano%26lt%3B%2Ffont%26gt%3B%26lt%3B%2Ffont%26gt%3B%26lt%3B%2Ffont%26gt%3B%26lt%3B%2Ffont%26gt%3B%26lt%3B%2Ffont%26gt%3B%26lt%3B%2Ffont%26gt%3B%26lt%3B%2Ffont%26gt%3B%26lt%3B%2F fonte% 26gt% 3B% 26lt% 3B% 2Ffont% 26gt% 3B% 26lt% 3B% 2Ffont% 26gt% 3B% 26lt% 3B% 2Fdiv% 26gt% 3B% 26lt% 3Bdiv% 26gt% 3B% 26lt% 3Bfont% 20style% 3D %26quot%3Bvertical-align%3A%20inherit%3B%26quot%3B%26gt%3B%26lt%3Bfont%20style%3D%26quot%3Bvertical-align%3A%20inherit%3B%2 6quot%3B%26gt%3B%26lt%3Bfonte%20estilo%3D%26quot%3Balinhamento-vertical%3A%20herdar%3B%26quot%3B%26gt%3B%26lt%3Bfonte%20estilo%3D%26quot%3Balinhamento-vertical%3A%20herdar%3B%26quot%3B%26gt%3B%26lt%3Bfonte%20estilo%3D%26quot%3B%26q uot%3B%26gt%3B%26lt%3Bfonte%20estilo%3D%26quot%3Balinhamento-vertical%3A%20herdar%3B%26quot%3B%26gt%3B%26lt%3Bfonte%20estilo%3D%26quot%3Balinhamento-vertical%3A%20herdar%3B%26quot%3B%26gt%3B%26lt%3Bfonte%20estilo%3D%26quot%3Balinhamento-vertical%3A%20herdar%3B%26quot%3B%26gt%3B%26lt%3Bfonte%20estilo%3D%26quot%3Balinhamento-vertical%3A%20herdar%3B%26qu ot% 3B% 26gt% 3B% 26lt% 3Bbr% 26gt% 3B% 26lt% 3B% 2Ffont% 26gt% 3B% 26lt% 3B% 2Ffont% 26gt% 3B% 26lt% 3B% 2Ffont% 26gt% 3B% 26lt% 3B% 2Ffont% 26gt% 3 B%26lt%3B%2Ffont%26gt%3B%26lt%3B%2Ffont%26gt%3B%26lt%3B%2Ffont%26gt%3B%26lt%3B%2Ffont%26gt%3B%26lt%3B%2Fdiv%26gt%3B%22%20st yle%3D%22texto%3Bcordotraço%3Dnenhum%3Bcordepreenchimento%3Dnenhum%3Balign%3Desquerda%3Balinhamentovertical%3Dtopo%3BespaçamentoEsquerda%3D4%3BespaçamentoDireita%3D4%3Boverflow%3Doculto%3Brotável%3D0%3Bpontos%3D%5B%5B0%2C0,5%5D%2C%5B1%2C0,5%5D%5D%3BRestriçãodePorta%3Leste-oeste%3Bbranco eSpace%3Dwrap%3Bhtml%3D1%3B%22%20vértice%3D%221%22%20pai%3D%222%22%3E%3CmxGeometry%20y%3D%2261.4468085106383%22%20largura%3D%22340%22%20altura%3D%2293.82978723404256%22%20como%3D%22geometria%22%2F%3E%3C%2FmxCell%3E%3C%2Froot%3E%3C%2FmxGraphModel%3E82978723404256%22%20como%3D%22geometria%22%2F%3E%3C%2FmxCell%3E%3C%2Froot%3E%3C%2FmxGraphModel%3E82978723404256%22%20como%3D%22geometria%22%2F%3E%3C%2FmxCell%3E%3C%2Froot%3E%3C%2FmxGraphModel%3E&lt;/font&gt;&lt;/font&gt;&lt;/span&gt;" style="html=1;strokeColor=none;resizeWidth=1;resizeHeight=1;fillColor=none;part=1;connectable=0;allowArrows=0;deletable=0;whiteSpace=wrap;" vertex="1" parent="moygf6hr6jvUK0BLB1yh-14">
          <mxGeometry width="1027.1604938271605" height="679" relative="1" as="geometry">
            <mxPoint y="30" as="offset" />
          </mxGeometry>
        </mxCell>
        <mxCell id="moygf6hr6jvUK0BLB1yh-16" value="&lt;font style=&quot;vertical-align: inherit;&quot;&gt;&lt;font style=&quot;vertical-align: inherit;&quot;&gt;&lt;font style=&quot;vertical-align: inherit;&quot;&gt;&lt;font style=&quot;vertical-align: inherit;&quot;&gt;Pessoa&lt;/font&gt;&lt;/font&gt;&lt;/font&gt;&lt;/font&gt;" style="swimlane;fontStyle=1;align=center;verticalAlign=top;childLayout=stackLayout;horizontal=1;startSize=26;horizontalStack=0;resizeParent=1;resizeParentMax=0;resizeLast=0;collapsible=1;marginBottom=0;whiteSpace=wrap;html=1;" vertex="1" parent="moygf6hr6jvUK0BLB1yh-14">
          <mxGeometry x="288.88888888888886" y="80" width="449.3827160493827" height="310.00063829787234" as="geometry" />
        </mxCell>
        <mxCell id="moygf6hr6jvUK0BLB1yh-17" value="&lt;div&gt;&lt;font style=&quot;vertical-align: inherit;&quot;&gt;&lt;font style=&quot;vertical-align: inherit;&quot;&gt;&lt;font style=&quot;vertical-align: inherit;&quot;&gt;&lt;font style=&quot;vertical-align: inherit;&quot;&gt;&lt;font style=&quot;vertical-align: inherit;&quot;&gt;&lt;font style=&quot;vertical-align: inherit;&quot;&gt;&lt;font style=&quot;vertical-align: inherit;&quot;&gt;&lt;font style=&quot;vertical-align: inherit;&quot;&gt;- nome: String&lt;/font&gt;&lt;/font&gt;&lt;/font&gt;&lt;/font&gt;&lt;/font&gt;&lt;/font&gt;&lt;/font&gt;&lt;/font&gt;&lt;/div&gt;&lt;div&gt;&lt;font style=&quot;vertical-align: inherit;&quot;&gt;&lt;font style=&quot;vertical-align: inherit;&quot;&gt;&lt;font style=&quot;vertical-align: inherit;&quot;&gt;&lt;font style=&quot;vertical-align: inherit;&quot;&gt;&lt;font style=&quot;vertical-align: inherit;&quot;&gt;&lt;font style=&quot;vertical-align: inherit;&quot;&gt;&lt;font style=&quot;vertical-align: inherit;&quot;&gt;&lt;font style=&quot;vertical-align: inherit;&quot;&gt;&lt;font style=&quot;vertical-align: inherit;&quot;&gt;&lt;font style=&quot;vertical-align: inherit;&quot;&gt;- cpf: String&lt;/font&gt;&lt;/font&gt;&lt;/font&gt;&lt;/font&gt;&lt;/font&gt;&lt;/font&gt;&lt;/font&gt;&lt;/font&gt;&lt;/font&gt;&lt;/font&gt;&lt;/div&gt;&lt;div&gt;&lt;font style=&quot;vertical-align: inherit;&quot;&gt;&lt;font style=&quot;vertical-align: inherit;&quot;&gt;&lt;font style=&quot;vertical-align: inherit;&quot;&gt;&lt;font style=&quot;vertical-align: inherit;&quot;&gt;&lt;font style=&quot;vertical-align: inherit;&quot;&gt;&lt;font style=&quot;vertical-align: inherit;&quot;&gt;&lt;font style=&quot;vertical-align: inherit;&quot;&gt;&lt;font style=&quot;vertical-align: inherit;&quot;&gt;&lt;font style=&quot;vertical-align: inherit;&quot;&gt;&lt;font style=&quot;vertical-align: inherit;&quot;&gt;- dataNascimento: LocalDate&lt;/font&gt;&lt;/font&gt;&lt;/font&gt;&lt;/font&gt;&lt;/font&gt;&lt;/font&gt;&lt;/font&gt;&lt;/font&gt;&lt;/font&gt;&lt;/font&gt;&lt;/div&gt;&lt;div&gt;&lt;font style=&quot;vertical-align: inherit;&quot;&gt;&lt;font style=&quot;vertical-align: inherit;&quot;&gt;&lt;font style=&quot;vertical-align: inherit;&quot;&gt;&lt;font style=&quot;vertical-align: inherit;&quot;&gt;&lt;font style=&quot;vertical-align: inherit;&quot;&gt;&lt;font style=&quot;vertical-align: inherit;&quot;&gt;&lt;font style=&quot;vertical-align: inherit;&quot;&gt;&lt;font style=&quot;vertical-align: inherit;&quot;&gt;&lt;font style=&quot;vertical-align: inherit;&quot;&gt;&lt;font style=&quot;vertical-align: inherit;&quot;&gt;&lt;font style=&quot;vertical-align: inherit;&quot;&gt;&lt;font style=&quot;vertical-align: inherit;&quot;&gt;- historicoConsulta: List&amp;lt;Consulta&amp;gt;&lt;/font&gt;&lt;/font&gt;&lt;/font&gt;&lt;/font&gt;&lt;/font&gt;&lt;/font&gt;&lt;/font&gt;&lt;/font&gt;&lt;/font&gt;&lt;/font&gt;&lt;/font&gt;&lt;/font&gt;&lt;/div&gt;&lt;div&gt;&lt;font style=&quot;vertical-align: inherit;&quot;&gt;&lt;font style=&quot;vertical-align: inherit;&quot;&gt;- historicoExame: List&amp;lt;Exame&amp;gt;&lt;/font&gt;&lt;/font&gt;&lt;/div&gt;" style="text;strokeColor=none;fillColor=none;align=left;verticalAlign=top;spacingLeft=4;spacingRight=4;overflow=hidden;rotatable=0;points=[[0,0.5],[1,0.5]];portConstraint=eastwest;whiteSpace=wrap;html=1;" vertex="1" parent="moygf6hr6jvUK0BLB1yh-16">
          <mxGeometry y="26" width="449.3827160493827" height="94" as="geometry" />
        </mxCell>
        <mxCell id="moygf6hr6jvUK0BLB1yh-18" value="" style="line;strokeWidth=1;fillColor=none;align=left;verticalAlign=middle;spacingTop=-1;spacingLeft=3;spacingRight=3;rotatable=0;labelPosition=right;points=[];portConstraint=eastwest;strokeColor=inherit;" vertex="1" parent="moygf6hr6jvUK0BLB1yh-16">
          <mxGeometry y="120" width="449.3827160493827" height="16.51063829787234" as="geometry" />
        </mxCell>
        <mxCell id="moygf6hr6jvUK0BLB1yh-19" value="&lt;div&gt;&lt;font style=&quot;vertical-align: inherit;&quot;&gt;&lt;font style=&quot;vertical-align: inherit;&quot;&gt;&lt;font style=&quot;vertical-align: inherit;&quot;&gt;&lt;font style=&quot;vertical-align: inherit;&quot;&gt;&lt;font style=&quot;vertical-align: inherit;&quot;&gt;&lt;font style=&quot;vertical-align: inherit;&quot;&gt;&lt;font style=&quot;vertical-align: inherit;&quot;&gt;&lt;font style=&quot;vertical-align: inherit;&quot;&gt;&lt;font style=&quot;vertical-align: inherit;&quot;&gt;&lt;font style=&quot;vertical-align: inherit;&quot;&gt;&lt;font style=&quot;vertical-align: inherit;&quot;&gt;&lt;font style=&quot;vertical-align: inherit;&quot;&gt;+ getNome(): String&lt;/font&gt;&lt;/font&gt;&lt;/font&gt;&lt;/font&gt;&lt;div&gt;&lt;font style=&quot;vertical-align: inherit;&quot;&gt;&lt;font style=&quot;vertical-align: inherit;&quot;&gt;&lt;font style=&quot;vertical-align: inherit;&quot;&gt;&lt;font style=&quot;vertical-align: inherit;&quot;&gt;+ setNome(nome: String): void&lt;/font&gt;&lt;/font&gt;&lt;/font&gt;&lt;/font&gt;&lt;br&gt;&lt;div&gt;&lt;font style=&quot;vertical-align: inherit;&quot;&gt;&lt;font style=&quot;vertical-align: inherit;&quot;&gt;&lt;font style=&quot;vertical-align: inherit;&quot;&gt;&lt;font style=&quot;vertical-align: inherit;&quot;&gt;+ getCpf(): String&lt;/font&gt;&lt;/font&gt;&lt;/font&gt;&lt;/font&gt;&lt;/div&gt;&lt;div&gt;&lt;font style=&quot;vertical-align: inherit;&quot;&gt;&lt;font style=&quot;vertical-align: inherit;&quot;&gt;&lt;font style=&quot;vertical-align: inherit;&quot;&gt;&lt;font style=&quot;vertical-align: inherit;&quot;&gt;&lt;font style=&quot;vertical-align: inherit;&quot;&gt;&lt;font style=&quot;vertical-align: inherit;&quot;&gt;+ setCpf(cpf: String): void&lt;/font&gt;&lt;/font&gt;&lt;/font&gt;&lt;/font&gt;&lt;/font&gt;&lt;/font&gt;&lt;/div&gt;&lt;div&gt;&lt;font style=&quot;vertical-align: inherit;&quot;&gt;&lt;font style=&quot;vertical-align: inherit;&quot;&gt;&lt;font style=&quot;vertical-align: inherit;&quot;&gt;&lt;font style=&quot;vertical-align: inherit;&quot;&gt;+ getDataNascimento: LocalDate&lt;/font&gt;&lt;/font&gt;&lt;/font&gt;&lt;/font&gt;&lt;/div&gt;&lt;div&gt;&lt;font style=&quot;vertical-align: inherit;&quot;&gt;&lt;font style=&quot;vertical-align: inherit;&quot;&gt;&lt;font style=&quot;vertical-align: inherit;&quot;&gt;&lt;font style=&quot;vertical-align: inherit;&quot;&gt;+ setDataNascimento(dataNascimento: LocalDate): void&lt;/font&gt;&lt;/font&gt;&lt;/font&gt;&lt;/font&gt;&lt;/div&gt;&lt;div&gt;&lt;font style=&quot;vertical-align: inherit;&quot;&gt;&lt;font style=&quot;vertical-align: inherit;&quot;&gt;&lt;font style=&quot;vertical-align: inherit;&quot;&gt;&lt;font style=&quot;vertical-align: inherit;&quot;&gt;+ getHistoricoConsulta(): List&amp;lt;Consulta&amp;gt;&lt;/font&gt;&lt;/font&gt;&lt;/font&gt;&lt;/font&gt;&lt;/div&gt;&lt;div&gt;&lt;font style=&quot;vertical-align: inherit;&quot;&gt;&lt;font style=&quot;vertical-align: inherit;&quot;&gt;&lt;font style=&quot;vertical-align: inherit;&quot;&gt;&lt;font style=&quot;vertical-align: inherit;&quot;&gt;+ setHistoricoConsulta(historicoConsulta: List&amp;lt;Consulta&amp;gt;): void&lt;/font&gt;&lt;/font&gt;&lt;/font&gt;&lt;/font&gt;&lt;/div&gt;&lt;div&gt;+ getHistoricoExame(): List&amp;lt;Exame&amp;gt;&lt;/div&gt;&lt;/div&gt;&lt;div&gt;+ setHistoricoExame(historicoExame: List&amp;lt;Exame&amp;gt;): void&lt;/div&gt;&lt;/font&gt;&lt;/font&gt;&lt;/font&gt;&lt;/font&gt;&lt;/font&gt;&lt;/font&gt;&lt;/font&gt;&lt;/font&gt;&lt;/div&gt;" style="text;strokeColor=none;fillColor=none;align=left;verticalAlign=top;spacingLeft=4;spacingRight=4;overflow=hidden;rotatable=0;points=[[0,0.5],[1,0.5]];portConstraint=eastwest;whiteSpace=wrap;html=1;" vertex="1" parent="moygf6hr6jvUK0BLB1yh-16">
          <mxGeometry y="136.51063829787233" width="449.3827160493827" height="173.49" as="geometry" />
        </mxCell>
        <mxCell id="moygf6hr6jvUK0BLB1yh-20" value="&lt;font style=&quot;vertical-align: inherit;&quot;&gt;&lt;font style=&quot;vertical-align: inherit;&quot;&gt;&lt;font style=&quot;vertical-align: inherit;&quot;&gt;&lt;font style=&quot;vertical-align: inherit;&quot;&gt;Paciente&lt;/font&gt;&lt;/font&gt;&lt;/font&gt;&lt;/font&gt;" style="swimlane;fontStyle=1;align=center;verticalAlign=top;childLayout=stackLayout;horizontal=1;startSize=26;horizontalStack=0;resizeParent=1;resizeParentMax=0;resizeLast=0;collapsible=1;marginBottom=0;whiteSpace=wrap;html=1;" vertex="1" parent="moygf6hr6jvUK0BLB1yh-14">
          <mxGeometry x="110" y="540" width="316.81" height="42.51063829787234" as="geometry" />
        </mxCell>
        <mxCell id="moygf6hr6jvUK0BLB1yh-22" value="" style="line;strokeWidth=1;fillColor=none;align=left;verticalAlign=middle;spacingTop=-1;spacingLeft=3;spacingRight=3;rotatable=0;labelPosition=right;points=[];portConstraint=eastwest;strokeColor=inherit;" vertex="1" parent="moygf6hr6jvUK0BLB1yh-20">
          <mxGeometry y="26" width="316.81" height="16.51063829787234" as="geometry" />
        </mxCell>
        <mxCell id="moygf6hr6jvUK0BLB1yh-26" value="&lt;font style=&quot;vertical-align: inherit;&quot;&gt;&lt;font style=&quot;vertical-align: inherit;&quot;&gt;&lt;font style=&quot;vertical-align: inherit;&quot;&gt;&lt;font style=&quot;vertical-align: inherit;&quot;&gt;Medico&lt;/font&gt;&lt;/font&gt;&lt;/font&gt;&lt;/font&gt;" style="swimlane;fontStyle=1;align=center;verticalAlign=top;childLayout=stackLayout;horizontal=1;startSize=26;horizontalStack=0;resizeParent=1;resizeParentMax=0;resizeLast=0;collapsible=1;marginBottom=0;whiteSpace=wrap;html=1;" vertex="1" parent="moygf6hr6jvUK0BLB1yh-14">
          <mxGeometry x="603.46" y="540" width="266.54" height="42.51063829787234" as="geometry" />
        </mxCell>
        <mxCell id="moygf6hr6jvUK0BLB1yh-27" value="" style="line;strokeWidth=1;fillColor=none;align=left;verticalAlign=middle;spacingTop=-1;spacingLeft=3;spacingRight=3;rotatable=0;labelPosition=right;points=[];portConstraint=eastwest;strokeColor=inherit;" vertex="1" parent="moygf6hr6jvUK0BLB1yh-26">
          <mxGeometry y="26" width="266.54" height="16.51063829787234" as="geometry" />
        </mxCell>
        <mxCell id="moygf6hr6jvUK0BLB1yh-28" value="Extends" style="endArrow=block;endSize=16;endFill=0;html=1;rounded=0;entryX=0.224;entryY=1.031;entryDx=0;entryDy=0;entryPerimeter=0;" edge="1" parent="moygf6hr6jvUK0BLB1yh-14" source="moygf6hr6jvUK0BLB1yh-20">
          <mxGeometry width="160" relative="1" as="geometry">
            <mxPoint x="299" y="566" as="sourcePoint" />
            <mxPoint x="387" y="390" as="targetPoint" />
          </mxGeometry>
        </mxCell>
        <mxCell id="moygf6hr6jvUK0BLB1yh-29" value="Extends" style="endArrow=block;endSize=16;endFill=0;html=1;rounded=0;exitX=0.5;exitY=0;exitDx=0;exitDy=0;entryX=0.811;entryY=0.988;entryDx=0;entryDy=0;entryPerimeter=0;" edge="1" parent="moygf6hr6jvUK0BLB1yh-14" source="moygf6hr6jvUK0BLB1yh-26" target="moygf6hr6jvUK0BLB1yh-19">
          <mxGeometry width="160" relative="1" as="geometry">
            <mxPoint x="738.27" y="540" as="sourcePoint" />
            <mxPoint x="826.27" y="364" as="targetPoint" />
          </mxGeometry>
        </mxCell>
      </root>
    </mxGraphModel>
  </diagram>
</mxfile>
